<svg width="5892" height="4489" viewBox="0 0 5892 4489" fill="none" xmlns="http://www.w3.org/2000/svg">
<rect width="5891.12" height="4488.98" fill="#0F142E"/>
<path d="M3756.17 3345.79C3638.95 3321.23 3554.41 3251.23 3567.36 3189.47C3580.3 3127.7 3685.83 3097.54 3803.06 3122.11C3920.28 3146.68 3991.87 3278.44 3991.87 3278.44C3991.87 3278.44 3873.4 3370.36 3756.17 3345.79Z" fill="url(#paint0_linear_53_219)"/>
<path d="M3756.17 3345.79C3638.95 3321.23 3554.41 3251.23 3567.36 3189.47C3580.3 3127.7 3685.83 3097.54 3803.06 3122.11C3920.28 3146.68 3991.87 3278.44 3991.87 3278.44C3991.87 3278.44 3873.4 3370.36 3756.17 3345.79Z" fill="url(#paint1_linear_53_219)"/>
<path d="M4095.63 3120.17C3982.18 3140.1 3881.71 3107.79 3871.21 3048.02C3860.71 2988.24 3944.17 2923.63 4057.61 2903.71C4171.05 2883.78 4282.02 2975.87 4282.02 2975.87C4282.02 2975.87 4209.07 3100.25 4095.63 3120.17Z" fill="url(#paint2_linear_53_219)"/>
<path d="M4095.63 3120.17C3982.18 3140.1 3881.71 3107.79 3871.21 3048.02C3860.71 2988.24 3944.17 2923.63 4057.61 2903.71C4171.05 2883.78 4282.02 2975.87 4282.02 2975.87C4282.02 2975.87 4209.07 3100.25 4095.63 3120.17Z" fill="url(#paint3_linear_53_219)"/>
<path d="M4356.24 2807.09C4256.07 2863.95 4150.58 2867.26 4120.62 2814.48C4090.66 2761.7 4147.58 2672.82 4247.74 2615.96C4347.91 2559.1 4483.36 2608.58 4483.36 2608.58C4483.36 2608.58 4456.4 2750.24 4356.24 2807.09Z" fill="url(#paint4_linear_53_219)"/>
<path d="M4356.24 2807.09C4256.07 2863.95 4150.58 2867.26 4120.62 2814.48C4090.66 2761.7 4147.58 2672.82 4247.74 2615.96C4347.91 2559.1 4483.36 2608.58 4483.36 2608.58C4483.36 2608.58 4456.4 2750.24 4356.24 2807.09Z" fill="url(#paint5_linear_53_219)"/>
<path d="M4506.21 2434.16C4423.81 2505.85 4326.38 2528.77 4288.6 2485.35C4250.83 2441.93 4287 2348.61 4369.41 2276.92C4451.81 2205.22 4587.01 2225.72 4587.01 2225.72C4587.01 2225.72 4588.61 2362.46 4506.21 2434.16Z" fill="url(#paint6_linear_53_219)"/>
<path d="M4506.21 2434.16C4423.81 2505.85 4326.38 2528.77 4288.6 2485.35C4250.83 2441.93 4287 2348.61 4369.41 2276.92C4451.81 2205.22 4587.01 2225.72 4587.01 2225.72C4587.01 2225.72 4588.61 2362.46 4506.21 2434.16Z" fill="url(#paint7_linear_53_219)"/>
<path d="M4546.05 2055.11C4487.39 2147.25 4400.49 2196.89 4351.94 2165.98C4303.39 2135.08 4311.57 2035.33 4370.23 1943.19C4428.88 1851.05 4564.34 1832.31 4564.34 1832.31C4564.34 1832.31 4604.7 1962.96 4546.05 2055.11Z" fill="url(#paint8_linear_53_219)"/>
<path d="M4546.05 2055.11C4487.39 2147.25 4400.49 2196.89 4351.94 2165.98C4303.39 2135.08 4311.57 2035.33 4370.23 1943.19C4428.88 1851.05 4564.34 1832.31 4564.34 1832.31C4564.34 1832.31 4604.7 1962.96 4546.05 2055.11Z" fill="url(#paint9_linear_53_219)"/>
<path d="M4490.76 1678.5C4463.54 1784.28 4396.29 1858.41 4340.56 1844.07C4284.82 1829.73 4261.7 1732.35 4288.91 1626.57C4316.13 1520.79 4439.12 1461 4439.12 1461C4439.12 1461 4517.98 1572.72 4490.76 1678.5Z" fill="url(#paint10_linear_53_219)"/>
<path d="M4490.76 1678.5C4463.54 1784.28 4396.29 1858.41 4340.56 1844.07C4284.82 1829.73 4261.7 1732.35 4288.91 1626.57C4316.13 1520.79 4439.12 1461 4439.12 1461C4439.12 1461 4517.98 1572.72 4490.76 1678.5Z" fill="url(#paint11_linear_53_219)"/>
<path d="M4314.19 1299.02C4316.52 1408.22 4271.76 1497.75 4214.22 1498.97C4156.68 1500.2 4108.15 1412.68 4105.81 1303.47C4103.48 1194.27 4205.78 1103.52 4205.78 1103.52C4205.78 1103.52 4311.85 1189.82 4314.19 1299.02Z" fill="url(#paint12_linear_53_219)"/>
<path d="M4314.19 1299.02C4316.52 1408.22 4271.76 1497.75 4214.22 1498.97C4156.68 1500.2 4108.15 1412.68 4105.81 1303.47C4103.48 1194.27 4205.78 1103.52 4205.78 1103.52C4205.78 1103.52 4311.85 1189.82 4314.19 1299.02Z" fill="url(#paint13_linear_53_219)"/>
<path d="M3693.47 2945.84C3674.89 3064.3 3629.78 3096.88 3585.79 3089.98C3541.8 3083.08 3515.59 3039.32 3534.17 2920.86C3552.75 2802.39 3647.46 2718.85 3647.46 2718.85C3647.46 2718.85 3712.05 2827.38 3693.47 2945.84Z" fill="url(#paint14_linear_53_219)"/>
<path d="M3693.47 2945.84C3674.89 3064.3 3632.55 3101.33 3588.56 3094.43C3544.57 3087.53 3515.59 3039.32 3534.17 2920.86C3552.75 2802.39 3647.46 2718.85 3647.46 2718.85C3647.46 2718.85 3712.05 2827.38 3693.47 2945.84Z" fill="url(#paint15_linear_53_219)"/>
<path d="M3918.01 2768.99C3939.55 2886.95 3907.7 2932.58 3863.9 2940.58C3820.09 2948.57 3780.92 2915.91 3759.39 2797.94C3737.86 2679.98 3799.72 2569.88 3799.72 2569.88C3799.72 2569.88 3896.48 2651.03 3918.01 2768.99Z" fill="url(#paint16_linear_53_219)"/>
<path d="M3918.01 2768.99C3939.55 2886.95 3911.78 2935.87 3867.98 2943.86C3824.17 2951.86 3780.92 2915.91 3759.39 2797.94C3737.86 2679.98 3799.72 2569.88 3799.72 2569.88C3799.72 2569.88 3896.48 2651.03 3918.01 2768.99Z" fill="url(#paint17_linear_53_219)"/>
<path d="M4069.56 2522C4123.26 2629.22 4105.47 2681.94 4065.65 2701.88C4025.84 2721.82 3979.09 2701.43 3925.38 2594.22C3871.68 2487.01 3900.23 2363.98 3900.23 2363.98C3900.23 2363.98 4015.85 2414.79 4069.56 2522Z" fill="url(#paint18_linear_53_219)"/>
<path d="M4069.56 2522C4123.26 2629.22 4110.3 2683.95 4070.49 2703.89C4030.68 2723.84 3979.09 2701.43 3925.38 2594.22C3871.68 2487.01 3900.23 2363.98 3900.23 2363.98C3900.23 2363.98 4015.85 2414.79 4069.56 2522Z" fill="url(#paint19_linear_53_219)"/>
<path d="M4173.18 2272.3C4240.48 2359.72 4233.66 2410.46 4201.2 2435.45C4168.73 2460.45 4122.93 2450.23 4055.62 2362.81C3988.32 2275.39 3992.53 2159.27 3992.53 2159.27C3992.53 2159.27 4105.87 2184.89 4173.18 2272.3Z" fill="url(#paint20_linear_53_219)"/>
<path d="M4173.18 2272.3C4240.48 2359.72 4238.38 2411.43 4205.92 2436.42C4173.46 2461.42 4122.93 2450.23 4055.62 2362.81C3988.32 2275.39 3992.53 2159.27 3992.53 2159.27C3992.53 2159.27 4105.87 2184.89 4173.18 2272.3Z" fill="url(#paint21_linear_53_219)"/>
<path d="M4182.7 1972.84C4272.88 2036.39 4281.4 2086.87 4257.8 2120.36C4234.2 2153.85 4187.42 2157.67 4097.24 2094.12C4007.05 2030.57 3976.67 1918.41 3976.67 1918.41C3976.67 1918.41 4092.51 1909.29 4182.7 1972.84Z" fill="url(#paint22_linear_53_219)"/>
<path d="M4182.7 1972.84C4272.88 2036.39 4286.19 2086.4 4262.6 2119.89C4239 2153.38 4187.42 2157.67 4097.24 2094.12C4007.05 2030.57 3976.67 1918.41 3976.67 1918.41C3976.67 1918.41 4092.51 1909.29 4182.7 1972.84Z" fill="url(#paint23_linear_53_219)"/>
<path d="M4127.27 1690.91C4233.09 1722.14 4257.36 1767.21 4245.77 1806.51C4234.18 1845.8 4191.1 1864.43 4085.29 1833.21C3979.47 1801.98 3914.68 1705.52 3914.68 1705.52C3914.68 1705.52 4021.46 1659.69 4127.27 1690.91Z" fill="url(#paint24_linear_53_219)"/>
<path d="M4127.27 1690.91C4233.09 1722.14 4261.76 1765.22 4250.16 1804.52C4238.57 1843.81 4191.1 1864.43 4085.29 1833.21C3979.47 1801.98 3914.68 1705.52 3914.68 1705.52C3914.68 1705.52 4021.46 1659.69 4127.27 1690.91Z" fill="url(#paint25_linear_53_219)"/>
<path d="M3992.72 1437.66C4102.82 1444.68 4136.47 1483.26 4133.87 1524.15C4131.26 1565.03 4093.38 1592.74 3983.27 1585.71C3873.17 1578.69 3788.64 1498.97 3788.64 1498.97C3788.64 1498.97 3882.62 1430.63 3992.72 1437.66Z" fill="url(#paint26_linear_53_219)"/>
<path d="M3992.72 1437.66C4102.82 1444.68 4140.32 1480.35 4137.71 1521.24C4135.1 1562.12 4093.38 1592.74 3983.27 1585.71C3873.17 1578.69 3788.64 1498.97 3788.64 1498.97C3788.64 1498.97 3882.62 1430.63 3992.72 1437.66Z" fill="url(#paint27_linear_53_219)"/>
<path d="M3945.06 1129.35C4029.04 1200.9 4032.89 1251.95 4006.32 1283.13C3979.75 1314.32 3932.82 1313.83 3848.84 1242.27C3764.87 1170.72 3744.9 1056.25 3744.9 1056.25C3744.9 1056.25 3861.08 1057.79 3945.06 1129.35Z" fill="url(#paint28_linear_53_219)"/>
<path d="M3945.06 1129.35C4029.04 1200.9 4037.71 1251.92 4011.14 1283.1C3984.57 1314.29 3932.82 1313.83 3848.84 1242.27C3764.87 1170.72 3744.9 1056.25 3744.9 1056.25C3744.9 1056.25 3861.08 1057.79 3945.06 1129.35Z" fill="url(#paint29_linear_53_219)"/>
<path d="M2141.78 3340.51C2258.4 3313.21 2341.28 3241.26 2326.89 3179.81C2312.51 3118.36 2206.31 3090.68 2089.69 3117.98C1973.07 3145.28 1904.57 3278.68 1904.57 3278.68C1904.57 3278.68 2025.16 3367.81 2141.78 3340.51Z" fill="url(#paint30_linear_53_219)"/>
<path d="M2141.78 3340.51C2258.4 3313.21 2341.28 3241.26 2326.89 3179.81C2312.51 3118.36 2206.31 3090.68 2089.69 3117.98C1973.07 3145.28 1904.57 3278.68 1904.57 3278.68C1904.57 3278.68 2025.16 3367.81 2141.78 3340.51Z" fill="url(#paint31_linear_53_219)"/>
<path d="M1797.15 3122.88C1911.03 3140.15 2010.72 3105.51 2019.82 3045.5C2028.92 2985.5 1943.98 2922.86 1830.1 2905.59C1716.22 2888.32 1607.43 2982.97 1607.43 2982.97C1607.43 2982.97 1683.27 3105.62 1797.15 3122.88Z" fill="url(#paint32_linear_53_219)"/>
<path d="M1797.15 3122.88C1911.03 3140.15 2010.72 3105.51 2019.82 3045.5C2028.92 2985.5 1943.98 2922.86 1830.1 2905.59C1716.22 2888.32 1607.43 2982.97 1607.43 2982.97C1607.43 2982.97 1683.27 3105.62 1797.15 3122.88Z" fill="url(#paint33_linear_53_219)"/>
<path d="M1529.3 2815.98C1630.76 2870.48 1736.3 2871.32 1765.02 2817.85C1793.74 2764.39 1734.76 2676.86 1633.29 2622.36C1531.83 2567.86 1397.57 2620.48 1397.57 2620.48C1397.57 2620.48 1427.83 2761.48 1529.3 2815.98Z" fill="url(#paint34_linear_53_219)"/>
<path d="M1529.3 2815.98C1630.76 2870.48 1736.3 2871.32 1765.02 2817.85C1793.74 2764.39 1734.76 2676.86 1633.29 2622.36C1531.83 2567.86 1397.57 2620.48 1397.57 2620.48C1397.57 2620.48 1427.83 2761.48 1529.3 2815.98Z" fill="url(#paint35_linear_53_219)"/>
<path d="M1370.65 2446.64C1454.71 2516.39 1552.64 2537.03 1589.39 2492.74C1626.15 2448.45 1587.8 2356 1503.74 2286.25C1419.69 2216.5 1285 2240.16 1285 2240.16C1285 2240.16 1286.6 2376.9 1370.65 2446.64Z" fill="url(#paint36_linear_53_219)"/>
<path d="M1370.65 2446.64C1454.71 2516.39 1552.64 2537.03 1589.39 2492.74C1626.15 2448.45 1587.8 2356 1503.74 2286.25C1419.69 2216.5 1285 2240.16 1285 2240.16C1285 2240.16 1286.6 2376.9 1370.65 2446.64Z" fill="url(#paint37_linear_53_219)"/>
<path d="M1321.97 2068.63C1382.76 2159.38 1470.8 2206.97 1518.62 2174.94C1566.43 2142.91 1555.92 2043.38 1495.13 1952.63C1434.34 1861.89 1298.48 1846.32 1298.48 1846.32C1298.48 1846.32 1261.18 1977.88 1321.97 2068.63Z" fill="url(#paint38_linear_53_219)"/>
<path d="M1321.97 2068.63C1382.76 2159.38 1470.8 2206.97 1518.62 2174.94C1566.43 2142.91 1555.92 2043.38 1495.13 1952.63C1434.34 1861.89 1298.48 1846.32 1298.48 1846.32C1298.48 1846.32 1261.18 1977.88 1321.97 2068.63Z" fill="url(#paint39_linear_53_219)"/>
<path d="M1368.44 1690.84C1398.12 1795.95 1467.09 1868.49 1522.47 1852.85C1577.86 1837.21 1598.7 1739.32 1569.02 1634.2C1539.34 1529.09 1414.99 1472.19 1414.99 1472.19C1414.99 1472.19 1338.76 1585.72 1368.44 1690.84Z" fill="url(#paint40_linear_53_219)"/>
<path d="M1368.44 1690.84C1398.12 1795.95 1467.09 1868.49 1522.47 1852.85C1577.86 1837.21 1598.7 1739.32 1569.02 1634.2C1539.34 1529.09 1414.99 1472.19 1414.99 1472.19C1414.99 1472.19 1338.76 1585.72 1368.44 1690.84Z" fill="url(#paint41_linear_53_219)"/>
<path d="M1536.1 1307.34C1536.32 1416.56 1583.16 1505.01 1640.71 1504.9C1698.26 1504.78 1744.74 1416.14 1744.52 1306.92C1744.3 1197.69 1639.91 1109.36 1639.91 1109.36C1639.91 1109.36 1535.88 1198.11 1536.1 1307.34Z" fill="url(#paint42_linear_53_219)"/>
<path d="M1536.1 1307.34C1536.32 1416.56 1583.16 1505.01 1640.71 1504.9C1698.26 1504.78 1744.74 1416.14 1744.52 1306.92C1744.3 1197.69 1639.91 1109.36 1639.91 1109.36C1639.91 1109.36 1535.88 1198.11 1536.1 1307.34Z" fill="url(#paint43_linear_53_219)"/>
<path d="M2195.12 2939.2C2216.46 3057.2 2262.33 3088.71 2306.14 3080.78C2349.96 3072.86 2375.14 3028.5 2353.8 2910.5C2332.45 2792.51 2235.82 2711.2 2235.82 2711.2C2235.82 2711.2 2173.78 2821.21 2195.12 2939.2Z" fill="url(#paint44_linear_53_219)"/>
<path d="M2195.12 2939.2C2216.46 3057.2 2259.66 3093.22 2303.48 3085.3C2347.29 3077.37 2375.14 3028.5 2353.8 2910.5C2332.45 2792.51 2235.82 2711.2 2235.82 2711.2C2235.82 2711.2 2173.78 2821.21 2195.12 2939.2Z" fill="url(#paint45_linear_53_219)"/>
<path d="M1966.51 2767.65C1947.74 2886.08 1980.64 2930.95 2024.62 2937.92C2068.6 2944.89 2107 2911.32 2125.77 2792.88C2144.54 2674.45 2080.12 2565.82 2080.12 2565.82C2080.12 2565.82 1985.28 2649.21 1966.51 2767.65Z" fill="url(#paint46_linear_53_219)"/>
<path d="M1966.51 2767.65C1947.74 2886.08 1976.64 2934.33 2020.62 2941.3C2064.59 2948.27 2107 2911.32 2125.77 2792.88C2144.54 2674.45 2080.12 2565.82 2080.12 2565.82C2080.12 2565.82 1985.28 2649.21 1966.51 2767.65Z" fill="url(#paint47_linear_53_219)"/>
<path d="M1809.24 2524.27C1758.05 2632.71 1777.07 2685 1817.34 2704C1857.61 2723.01 1903.87 2701.53 1955.06 2593.09C2006.24 2484.66 1974.82 2362.34 1974.82 2362.34C1974.82 2362.34 1860.42 2415.83 1809.24 2524.27Z" fill="url(#paint48_linear_53_219)"/>
<path d="M1809.24 2524.27C1758.05 2632.71 1772.28 2687.12 1812.55 2706.13C1852.82 2725.14 1903.87 2701.53 1955.06 2593.09C2006.24 2484.66 1974.82 2362.34 1974.82 2362.34C1974.82 2362.34 1860.42 2415.83 1809.24 2524.27Z" fill="url(#paint49_linear_53_219)"/>
<path d="M1699.81 2277.06C1634.57 2366.02 1642.57 2416.59 1675.61 2440.82C1708.65 2465.04 1754.2 2453.76 1819.45 2364.79C1884.69 2275.83 1877.77 2159.83 1877.77 2159.83C1877.77 2159.83 1765.06 2188.09 1699.81 2277.06Z" fill="url(#paint50_linear_53_219)"/>
<path d="M1699.81 2277.06C1634.57 2366.02 1637.88 2417.67 1670.91 2441.9C1703.95 2466.12 1754.2 2453.76 1819.45 2364.79C1884.69 2275.83 1877.77 2159.83 1877.77 2159.83C1877.77 2159.83 1765.06 2188.09 1699.81 2277.06Z" fill="url(#paint51_linear_53_219)"/>
<path d="M1683.3 1977.9C1594.62 2043.54 1587.29 2094.21 1611.66 2127.13C1636.04 2160.06 1682.89 2162.78 1771.57 2097.14C1860.24 2031.5 1888 1918.67 1888 1918.67C1888 1918.67 1771.98 1912.26 1683.3 1977.9Z" fill="url(#paint52_linear_53_219)"/>
<path d="M1683.3 1977.9C1594.62 2043.54 1582.48 2093.85 1606.86 2126.77C1631.23 2159.7 1682.89 2162.78 1771.57 2097.14C1860.24 2031.5 1888 1918.67 1888 1918.67C1888 1918.67 1771.98 1912.26 1683.3 1977.9Z" fill="url(#paint53_linear_53_219)"/>
<path d="M1732.12 1694.75C1627.06 1728.44 1603.85 1774.07 1616.36 1813.08C1628.87 1852.09 1672.36 1869.71 1777.42 1836.03C1882.48 1802.34 1944.99 1704.39 1944.99 1704.39C1944.99 1704.39 1837.18 1661.06 1732.12 1694.75Z" fill="url(#paint54_linear_53_219)"/>
<path d="M1732.12 1694.75C1627.06 1728.44 1599.41 1772.18 1611.92 1811.2C1624.43 1850.21 1672.36 1869.71 1777.42 1836.03C1882.48 1802.34 1944.99 1704.39 1944.99 1704.39C1944.99 1704.39 1837.18 1661.06 1732.12 1694.75Z" fill="url(#paint55_linear_53_219)"/>
<path d="M1860.72 1438.42C1750.81 1448.01 1718.07 1487.37 1721.63 1528.18C1725.2 1569 1763.71 1595.81 1873.62 1586.22C1983.53 1576.62 2066.18 1494.95 2066.18 1494.95C2066.18 1494.95 1970.63 1428.83 1860.72 1438.42Z" fill="url(#paint56_linear_53_219)"/>
<path d="M1860.72 1438.42C1750.81 1448.01 1714.16 1484.55 1717.72 1525.36C1721.29 1566.18 1763.71 1595.81 1873.62 1586.22C1983.53 1576.62 2066.18 1494.95 2066.18 1494.95C2066.18 1494.95 1970.63 1428.83 1860.72 1438.42Z" fill="url(#paint57_linear_53_219)"/>
<path d="M1901.16 1129.08C1818.88 1202.58 1816.22 1253.7 1843.51 1284.26C1870.8 1314.81 1917.71 1313.23 1999.99 1239.73C2082.28 1166.24 2099.56 1051.33 2099.56 1051.33C2099.56 1051.33 1983.45 1055.59 1901.16 1129.08Z" fill="url(#paint58_linear_53_219)"/>
<path d="M1901.16 1129.08C1818.88 1202.58 1811.4 1253.78 1838.69 1284.34C1865.98 1314.89 1917.71 1313.23 1999.99 1239.73C2082.28 1166.24 2099.56 1051.33 2099.56 1051.33C2099.56 1051.33 1983.45 1055.59 1901.16 1129.08Z" fill="url(#paint59_linear_53_219)"/>
<path d="M2311.17 1799.4C2287.46 1799.4 2266.81 1795.8 2249.23 1788.61C2231.91 1781.41 2216.06 1770.09 2201.67 1754.64L2246.83 1709.08C2256.69 1719.47 2267.21 1727.46 2278.4 1733.06C2289.59 1738.39 2302.24 1741.05 2316.36 1741.05C2328.35 1741.05 2337.54 1739.05 2343.94 1735.06C2350.6 1730.79 2353.93 1725.07 2353.93 1717.87C2353.93 1711.21 2351.53 1705.75 2346.74 1701.49C2341.94 1696.96 2335.55 1693.1 2327.55 1689.9C2319.83 1686.44 2311.17 1683.24 2301.58 1680.31C2292.25 1677.11 2282.8 1673.38 2273.2 1669.12C2263.88 1664.59 2255.22 1659.13 2247.23 1652.73C2239.5 1646.34 2233.24 1638.35 2228.45 1628.76C2223.65 1619.16 2221.25 1607.31 2221.25 1593.19C2221.25 1575.07 2225.52 1559.62 2234.04 1546.83C2242.83 1534.04 2254.95 1524.19 2270.41 1517.26C2285.86 1510.33 2303.84 1506.87 2324.36 1506.87C2344.87 1506.87 2363.79 1510.33 2381.1 1517.26C2398.42 1524.19 2412.67 1533.78 2423.86 1546.03L2378.31 1591.19C2369.78 1582.67 2361.12 1576.27 2352.33 1572.01C2343.54 1567.75 2333.95 1565.62 2323.56 1565.62C2313.7 1565.62 2305.97 1567.35 2300.38 1570.81C2294.78 1574.27 2291.99 1579.2 2291.99 1585.6C2291.99 1591.99 2294.38 1597.19 2299.18 1601.18C2303.98 1605.18 2310.24 1608.77 2317.96 1611.97C2325.95 1614.9 2334.61 1617.97 2343.94 1621.16C2353.53 1624.36 2362.99 1628.09 2372.31 1632.35C2381.64 1636.62 2390.16 1642.08 2397.89 1648.74C2405.88 1655.4 2412.27 1663.79 2417.07 1673.91C2421.86 1684.04 2424.26 1696.29 2424.26 1710.68C2424.26 1738.92 2414.27 1760.77 2394.29 1776.22C2374.58 1791.67 2346.87 1799.4 2311.17 1799.4ZM2529.96 1693.5L2421.66 1511.67H2503.59L2586.31 1659.13H2528.76L2611.49 1511.67H2691.81L2582.71 1693.5H2529.96ZM2521.57 1795V1664.32H2593.1V1795H2521.57ZM2780.07 1799.4C2756.36 1799.4 2735.71 1795.8 2718.13 1788.61C2700.81 1781.41 2684.96 1770.09 2670.58 1754.64L2715.73 1709.08C2725.59 1719.47 2736.11 1727.46 2747.3 1733.06C2758.49 1738.39 2771.15 1741.05 2785.27 1741.05C2797.26 1741.05 2806.45 1739.05 2812.84 1735.06C2819.5 1730.79 2822.83 1725.07 2822.83 1717.87C2822.83 1711.21 2820.43 1705.75 2815.64 1701.49C2810.84 1696.96 2804.45 1693.1 2796.46 1689.9C2788.73 1686.44 2780.07 1683.24 2770.48 1680.31C2761.16 1677.11 2751.7 1673.38 2742.11 1669.12C2732.78 1664.59 2724.13 1659.13 2716.13 1652.73C2708.41 1646.34 2702.15 1638.35 2697.35 1628.76C2692.55 1619.16 2690.16 1607.31 2690.16 1593.19C2690.16 1575.07 2694.42 1559.62 2702.95 1546.83C2711.74 1534.04 2723.86 1524.19 2739.31 1517.26C2754.76 1510.33 2772.75 1506.87 2793.26 1506.87C2813.77 1506.87 2832.69 1510.33 2850.01 1517.26C2867.32 1524.19 2881.58 1533.78 2892.77 1546.03L2847.21 1591.19C2838.68 1582.67 2830.03 1576.27 2821.23 1572.01C2812.44 1567.75 2802.85 1565.62 2792.46 1565.62C2782.6 1565.62 2774.88 1567.35 2769.28 1570.81C2763.69 1574.27 2760.89 1579.2 2760.89 1585.6C2760.89 1591.99 2763.29 1597.19 2768.08 1601.18C2772.88 1605.18 2779.14 1608.77 2786.87 1611.97C2794.86 1614.9 2803.52 1617.97 2812.84 1621.16C2822.43 1624.36 2831.89 1628.09 2841.22 1632.35C2850.54 1636.62 2859.07 1642.08 2866.79 1648.74C2874.78 1655.4 2881.18 1663.79 2885.97 1673.91C2890.77 1684.04 2893.17 1696.29 2893.17 1710.68C2893.17 1738.92 2883.18 1760.77 2863.19 1776.22C2843.48 1791.67 2815.77 1799.4 2780.07 1799.4ZM2984.4 1795V1513.66H3055.93V1795H2984.4ZM2897.68 1573.21V1511.67H3142.65V1573.21H2897.68ZM3171.19 1795V1511.67H3242.72V1795H3171.19ZM3227.93 1795V1734.66H3381.39V1795H3227.93ZM3227.93 1679.91V1621.16H3367V1679.91H3227.93ZM3227.93 1572.01V1511.67H3378.99V1572.01H3227.93ZM3417.74 1795V1511.67H3469.29L3577.99 1675.91H3553.61L3661.91 1511.67H3713.46V1795H3642.73V1629.95L3653.92 1633.15L3588.78 1731.06H3542.42L3477.68 1633.15L3488.87 1629.95V1795H3417.74ZM2335.97 2179L2210.83 1846.69H2300.35L2394.09 2115.26H2355.65L2450.8 1846.69H2538.45L2411.9 2179H2335.97ZM2568.76 2179V1846.69H2652.66V2179H2568.76ZM2635.32 2179V2108.23H2815.29V2179H2635.32ZM2635.32 2044.02V1975.12H2798.42V2044.02H2635.32ZM2635.32 1917.47V1846.69H2812.48V1917.47H2635.32ZM2929.39 2179V1849.04H3013.28V2179H2929.39ZM2827.68 1918.87V1846.69H3114.99V1918.87H2827.68ZM3085.18 2179L3214.07 1846.69H3295.16L3422.64 2179H3335L3238.92 1899.66H3269.38L3170.95 2179H3085.18ZM3163.46 2120.88V2054.33H3346.72V2120.88H3163.46ZM3515.62 2044.48V1984.49H3578.9C3592.64 1984.49 3603.11 1981.21 3610.3 1974.65C3617.8 1967.77 3621.55 1958.56 3621.55 1947C3621.55 1935.75 3617.8 1926.69 3610.3 1919.81C3603.11 1912.62 3592.64 1909.03 3578.9 1909.03H3515.62V1846.69H3590.61C3613.11 1846.69 3632.8 1850.91 3649.67 1859.35C3666.85 1867.79 3680.29 1879.35 3689.98 1894.03C3699.66 1908.72 3704.51 1925.9 3704.51 1945.59C3704.51 1965.27 3699.51 1982.62 3689.51 1997.61C3679.82 2012.3 3666.23 2023.86 3648.73 2032.3C3631.23 2040.42 3610.77 2044.48 3587.33 2044.48H3515.62ZM3449.07 2179V1846.69H3532.96V2179H3449.07ZM3629.05 2179L3532.5 2036.52L3607.96 2018.24L3726.07 2179H3629.05ZM2277.84 2531V2464.92H2350.78C2367.94 2464.92 2382.82 2461.63 2395.4 2455.05C2408.28 2448.48 2418.15 2438.75 2425.01 2425.88C2431.88 2412.72 2435.31 2396.84 2435.31 2378.25C2435.31 2359.94 2431.73 2344.5 2424.58 2331.91C2417.72 2319.04 2407.99 2309.31 2395.4 2302.73C2382.82 2296.16 2367.94 2292.87 2350.78 2292.87H2274.41V2226.79H2351.21C2374.67 2226.79 2396.26 2230.51 2416 2237.95C2435.74 2245.1 2452.9 2255.39 2467.49 2268.84C2482.08 2282.28 2493.38 2298.3 2501.38 2316.89C2509.68 2335.49 2513.83 2356.08 2513.83 2378.68C2513.83 2401.56 2509.68 2422.3 2501.38 2440.9C2493.38 2459.49 2482.08 2475.51 2467.49 2488.95C2452.9 2502.4 2435.74 2512.84 2416 2520.27C2396.55 2527.42 2375.24 2531 2352.07 2531H2277.84ZM2225.92 2531V2226.79H2302.73V2531H2225.92ZM2525.73 2531L2643.73 2226.79H2717.95L2834.66 2531H2754.43L2666.47 2275.27H2694.36L2604.25 2531H2525.73ZM2597.39 2477.8V2416.87H2765.15V2477.8H2597.39ZM2990.52 2535.72C2967.35 2535.72 2945.89 2531.86 2926.16 2524.13C2906.71 2516.13 2889.54 2504.97 2874.67 2490.67C2860.08 2476.37 2848.64 2459.77 2840.34 2440.9C2832.33 2421.73 2828.33 2400.99 2828.33 2378.68C2828.33 2356.08 2832.48 2335.34 2840.77 2316.47C2849.35 2297.3 2861.22 2280.71 2876.38 2266.69C2891.55 2252.39 2909.14 2241.38 2929.16 2233.65C2949.47 2225.65 2971.07 2221.64 2993.95 2221.64C3021.12 2221.64 3045.72 2226.5 3067.75 2236.23C3089.78 2245.67 3107.65 2258.83 3121.38 2275.7L3069.9 2327.19C3059.6 2314.89 3048.3 2305.74 3036 2299.73C3023.7 2293.44 3009.4 2290.29 2993.09 2290.29C2976.5 2290.29 2961.63 2294.01 2948.47 2301.45C2935.6 2308.6 2925.3 2318.75 2917.58 2331.91C2909.85 2345.07 2905.99 2360.52 2905.99 2378.25C2905.99 2395.99 2909.57 2411.58 2916.72 2425.02C2924.15 2438.46 2934.17 2448.9 2946.75 2456.34C2959.62 2463.78 2974.36 2467.5 2990.95 2467.5C3007.54 2467.5 3021.55 2464.35 3033 2458.06C3044.72 2451.77 3053.59 2442.61 3059.6 2430.6C3065.89 2418.58 3069.04 2404.28 3069.04 2387.69L3120.95 2421.16L2982.37 2417.73V2355.08H3146.27V2366.67C3146.27 2402.99 3139.69 2433.74 3126.53 2458.92C3113.37 2484.09 3095.07 2503.25 3071.61 2516.41C3048.44 2529.28 3021.41 2535.72 2990.52 2535.72ZM3178.46 2531V2226.79H3255.26V2531H3178.46ZM3239.38 2531V2466.21H3404.15V2531H3239.38ZM3239.38 2407.43V2344.35H3388.7V2407.43H3239.38ZM3239.38 2291.58V2226.79H3401.57V2291.58H3239.38ZM3443.17 2531V2226.79H3496.81L3519.98 2289V2531H3443.17ZM3652.99 2531L3475.35 2305.31L3496.81 2226.79L3674.87 2452.48L3652.99 2531ZM3652.99 2531L3633.25 2467.07V2226.79H3710.05V2531H3652.99Z" fill="white"/>
<path d="M2700.65 3411.59C2661.74 3411.59 2623.1 3406.53 2584.73 3396.4C2546.36 3385.74 2513.85 3370.82 2487.2 3351.64L2537.56 3252.51C2558.88 3267.96 2583.67 3280.22 2611.91 3289.28C2640.16 3298.34 2668.67 3302.87 2697.45 3302.87C2729.96 3302.87 2755.54 3296.47 2774.2 3283.68C2792.85 3270.89 2802.18 3253.31 2802.18 3230.92C2802.18 3209.6 2793.92 3192.81 2777.4 3180.56C2760.87 3168.3 2734.23 3162.17 2697.45 3162.17H2638.29V3076.63L2794.18 2899.95L2808.57 2946.32H2515.18V2842.4H2906.9V2926.34L2751.81 3103.01L2686.26 3065.44H2723.83C2792.58 3065.44 2844.55 3080.89 2879.72 3111.81C2914.9 3142.72 2932.49 3182.42 2932.49 3230.92C2932.49 3262.37 2924.23 3291.94 2907.7 3319.66C2891.18 3346.84 2865.87 3368.96 2831.76 3386.01C2797.65 3403.07 2753.95 3411.59 2700.65 3411.59ZM3176.15 3411.59C3130.32 3411.59 3089.28 3400.4 3053.04 3378.02C3016.8 3355.1 2988.28 3322.06 2967.5 3278.89C2946.71 3235.72 2936.32 3183.49 2936.32 3122.2C2936.32 3060.91 2946.71 3008.68 2967.5 2965.51C2988.28 2922.34 3016.8 2889.56 3053.04 2867.18C3089.28 2844.26 3130.32 2832.8 3176.15 2832.8C3222.52 2832.8 3263.56 2844.26 3299.26 2867.18C3335.51 2889.56 3364.02 2922.34 3384.8 2965.51C3405.59 3008.68 3415.98 3060.91 3415.98 3122.2C3415.98 3183.49 3405.59 3235.72 3384.8 3278.89C3364.02 3322.06 3335.51 3355.1 3299.26 3378.02C3263.56 3400.4 3222.52 3411.59 3176.15 3411.59ZM3176.15 3302.07C3198 3302.07 3216.92 3295.94 3232.91 3283.68C3249.43 3271.43 3262.22 3251.97 3271.28 3225.32C3280.88 3198.68 3285.67 3164.3 3285.67 3122.2C3285.67 3080.09 3280.88 3045.72 3271.28 3019.07C3262.22 2992.42 3249.43 2972.97 3232.91 2960.71C3216.92 2948.45 3198 2942.32 3176.15 2942.32C3154.83 2942.32 3135.91 2948.45 3119.39 2960.71C3103.4 2972.97 3090.61 2992.42 3081.02 3019.07C3071.96 3045.72 3067.43 3080.09 3067.43 3122.2C3067.43 3164.3 3071.96 3198.68 3081.02 3225.32C3090.61 3251.97 3103.4 3271.43 3119.39 3283.68C3135.91 3295.94 3154.83 3302.07 3176.15 3302.07Z" fill="#C857BC"/>
<path d="M2527 1216V1177.84L2625.12 1085.17C2632.87 1078.15 2638.57 1071.85 2642.2 1066.28C2645.83 1060.7 2648.26 1055.62 2649.47 1051.01C2650.92 1046.41 2651.65 1042.17 2651.65 1038.29C2651.65 1028.12 2648.13 1020.36 2641.11 1015.03C2634.33 1009.46 2624.27 1006.68 2610.95 1006.68C2600.29 1006.68 2590.35 1008.74 2581.15 1012.85C2572.18 1016.97 2564.55 1023.39 2558.25 1032.11L2515.37 1004.5C2525.06 989.959 2538.63 978.451 2556.07 969.972C2573.51 961.492 2593.62 957.252 2616.4 957.252C2635.29 957.252 2651.77 960.402 2665.82 966.701C2680.11 972.758 2691.14 981.359 2698.89 992.503C2706.89 1003.65 2710.88 1016.97 2710.88 1032.48C2710.88 1040.72 2709.79 1048.95 2707.61 1057.19C2705.67 1065.19 2701.56 1073.66 2695.26 1082.63C2689.2 1091.59 2680.24 1101.65 2668.36 1112.79L2586.96 1189.47L2575.7 1168.03H2719.24V1216H2527ZM2852.56 1220.36C2831.72 1220.36 2813.07 1215.27 2796.59 1205.1C2780.12 1194.68 2767.16 1179.66 2757.71 1160.03C2748.26 1140.41 2743.53 1116.67 2743.53 1088.81C2743.53 1060.95 2748.26 1037.2 2757.71 1017.58C2767.16 997.954 2780.12 983.054 2796.59 972.879C2813.07 962.461 2831.72 957.252 2852.56 957.252C2873.63 957.252 2892.29 962.461 2908.52 972.879C2925 983.054 2937.96 997.954 2947.41 1017.58C2956.86 1037.2 2961.58 1060.95 2961.58 1088.81C2961.58 1116.67 2956.86 1140.41 2947.41 1160.03C2937.96 1179.66 2925 1194.68 2908.52 1205.1C2892.29 1215.27 2873.63 1220.36 2852.56 1220.36ZM2852.56 1170.57C2862.49 1170.57 2871.09 1167.79 2878.36 1162.22C2885.87 1156.64 2891.68 1147.8 2895.8 1135.69C2900.16 1123.57 2902.34 1107.95 2902.34 1088.81C2902.34 1069.67 2900.16 1054.04 2895.8 1041.93C2891.68 1029.81 2885.87 1020.97 2878.36 1015.4C2871.09 1009.83 2862.49 1007.04 2852.56 1007.04C2842.87 1007.04 2834.26 1009.83 2826.75 1015.4C2819.49 1020.97 2813.67 1029.81 2809.31 1041.93C2805.19 1054.04 2803.13 1069.67 2803.13 1088.81C2803.13 1107.95 2805.19 1123.57 2809.31 1135.69C2813.67 1147.8 2819.49 1156.64 2826.75 1162.22C2834.26 1167.79 2842.87 1170.57 2852.56 1170.57ZM2986.58 1216V1177.84L3084.7 1085.17C3092.46 1078.15 3098.15 1071.85 3101.78 1066.28C3105.42 1060.7 3107.84 1055.62 3109.05 1051.01C3110.51 1046.41 3111.23 1042.17 3111.23 1038.29C3111.23 1028.12 3107.72 1020.36 3100.69 1015.03C3093.91 1009.46 3083.86 1006.68 3070.53 1006.68C3059.87 1006.68 3049.94 1008.74 3040.73 1012.85C3031.77 1016.97 3024.14 1023.39 3017.84 1032.11L2974.95 1004.5C2984.65 989.959 2998.21 978.451 3015.66 969.972C3033.1 961.492 3053.21 957.252 3075.98 957.252C3094.88 957.252 3111.35 960.402 3125.41 966.701C3139.7 972.758 3150.72 981.359 3158.48 992.503C3166.47 1003.65 3170.47 1016.97 3170.47 1032.48C3170.47 1040.72 3169.38 1048.95 3167.2 1057.19C3165.26 1065.19 3161.14 1073.66 3154.84 1082.63C3148.79 1091.59 3139.82 1101.65 3127.95 1112.79L3046.55 1189.47L3035.28 1168.03H3178.83V1216H2986.58ZM3316.87 1220.36C3293.61 1220.36 3273.38 1215.52 3256.18 1205.82C3239.22 1196.13 3226.14 1181.96 3216.93 1163.31C3207.72 1144.65 3203.12 1121.63 3203.12 1094.26C3203.12 1064.94 3208.57 1040.11 3219.47 1019.76C3230.62 999.408 3245.88 983.902 3265.26 973.242C3284.89 962.582 3307.42 957.252 3332.86 957.252C3346.42 957.252 3359.39 958.706 3371.74 961.613C3384.1 964.521 3394.76 968.881 3403.72 974.696L3381.92 1017.94C3374.89 1013.1 3367.38 1009.83 3359.39 1008.13C3351.39 1006.19 3343.03 1005.22 3334.31 1005.22C3312.26 1005.22 3294.82 1011.88 3281.98 1025.21C3269.14 1038.53 3262.72 1058.28 3262.72 1084.45C3262.72 1088.81 3262.72 1093.65 3262.72 1098.98C3262.96 1104.31 3263.69 1109.64 3264.9 1114.97L3248.55 1099.71C3253.15 1090.26 3259.08 1082.39 3266.35 1076.09C3273.62 1069.55 3282.22 1064.7 3292.15 1061.55C3302.33 1058.16 3313.47 1056.46 3325.59 1056.46C3342.06 1056.46 3356.84 1059.73 3369.92 1066.28C3383.01 1072.82 3393.42 1082.02 3401.18 1093.89C3409.17 1105.77 3413.17 1119.7 3413.17 1135.69C3413.17 1152.89 3408.81 1167.91 3400.09 1180.75C3391.61 1193.35 3380.1 1203.16 3365.56 1210.19C3351.27 1216.97 3335.04 1220.36 3316.87 1220.36ZM3313.6 1176.39C3321.83 1176.39 3329.1 1174.93 3335.4 1172.03C3341.94 1168.88 3347.03 1164.4 3350.66 1158.58C3354.3 1152.77 3356.11 1146.1 3356.11 1138.59C3356.11 1126.96 3352.12 1117.76 3344.12 1110.97C3336.37 1103.95 3325.95 1100.44 3312.87 1100.44C3304.15 1100.44 3296.52 1102.13 3289.97 1105.52C3283.43 1108.67 3278.22 1113.16 3274.35 1118.97C3270.71 1124.54 3268.9 1131.08 3268.9 1138.59C3268.9 1145.86 3270.71 1152.4 3274.35 1158.22C3277.98 1163.79 3283.07 1168.27 3289.61 1171.66C3296.15 1174.81 3304.15 1176.39 3313.6 1176.39Z" fill="#F1AD84"/>
<defs>
<linearGradient id="paint0_linear_53_219" x1="3577.7" y1="3252.68" x2="3749.87" y2="1054.83" gradientUnits="userSpaceOnUse">
<stop stop-color="#6156CD"/>
<stop offset="0.197115" stop-color="#9A53C5"/>
<stop offset="0.394231" stop-color="#CC58BA"/>
<stop offset="0.615385" stop-color="#DC7EA3"/>
<stop offset="0.745192" stop-color="#E89A90"/>
<stop offset="0.870192" stop-color="#EDA48A"/>
<stop offset="1" stop-color="#F2AE84"/>
</linearGradient>
<linearGradient id="paint1_linear_53_219" x1="3577.7" y1="3252.68" x2="3749.87" y2="1054.83" gradientUnits="userSpaceOnUse">
<stop stop-color="#6156CD"/>
<stop offset="0.197115" stop-color="#9A53C5"/>
<stop offset="0.394231" stop-color="#CC58BA"/>
<stop offset="0.615385" stop-color="#DC7EA3"/>
<stop offset="0.745192" stop-color="#E89A90"/>
<stop offset="0.870192" stop-color="#EDA48A"/>
<stop offset="1" stop-color="#F2AE84"/>
</linearGradient>
<linearGradient id="paint2_linear_53_219" x1="3577.7" y1="3252.68" x2="3749.87" y2="1054.83" gradientUnits="userSpaceOnUse">
<stop stop-color="#6156CD"/>
<stop offset="0.197115" stop-color="#9A53C5"/>
<stop offset="0.394231" stop-color="#CC58BA"/>
<stop offset="0.615385" stop-color="#DC7EA3"/>
<stop offset="0.745192" stop-color="#E89A90"/>
<stop offset="0.870192" stop-color="#EDA48A"/>
<stop offset="1" stop-color="#F2AE84"/>
</linearGradient>
<linearGradient id="paint3_linear_53_219" x1="3577.7" y1="3252.68" x2="3749.87" y2="1054.83" gradientUnits="userSpaceOnUse">
<stop stop-color="#6156CD"/>
<stop offset="0.197115" stop-color="#9A53C5"/>
<stop offset="0.394231" stop-color="#CC58BA"/>
<stop offset="0.615385" stop-color="#DC7EA3"/>
<stop offset="0.745192" stop-color="#E89A90"/>
<stop offset="0.870192" stop-color="#EDA48A"/>
<stop offset="1" stop-color="#F2AE84"/>
</linearGradient>
<linearGradient id="paint4_linear_53_219" x1="3577.7" y1="3252.68" x2="3749.87" y2="1054.83" gradientUnits="userSpaceOnUse">
<stop stop-color="#6156CD"/>
<stop offset="0.197115" stop-color="#9A53C5"/>
<stop offset="0.394231" stop-color="#CC58BA"/>
<stop offset="0.615385" stop-color="#DC7EA3"/>
<stop offset="0.745192" stop-color="#E89A90"/>
<stop offset="0.870192" stop-color="#EDA48A"/>
<stop offset="1" stop-color="#F2AE84"/>
</linearGradient>
<linearGradient id="paint5_linear_53_219" x1="3577.7" y1="3252.68" x2="3749.87" y2="1054.83" gradientUnits="userSpaceOnUse">
<stop stop-color="#6156CD"/>
<stop offset="0.197115" stop-color="#9A53C5"/>
<stop offset="0.394231" stop-color="#CC58BA"/>
<stop offset="0.615385" stop-color="#DC7EA3"/>
<stop offset="0.745192" stop-color="#E89A90"/>
<stop offset="0.870192" stop-color="#EDA48A"/>
<stop offset="1" stop-color="#F2AE84"/>
</linearGradient>
<linearGradient id="paint6_linear_53_219" x1="3577.7" y1="3252.68" x2="3749.87" y2="1054.83" gradientUnits="userSpaceOnUse">
<stop stop-color="#6156CD"/>
<stop offset="0.197115" stop-color="#9A53C5"/>
<stop offset="0.394231" stop-color="#CC58BA"/>
<stop offset="0.615385" stop-color="#DC7EA3"/>
<stop offset="0.745192" stop-color="#E89A90"/>
<stop offset="0.870192" stop-color="#EDA48A"/>
<stop offset="1" stop-color="#F2AE84"/>
</linearGradient>
<linearGradient id="paint7_linear_53_219" x1="3577.7" y1="3252.68" x2="3749.87" y2="1054.83" gradientUnits="userSpaceOnUse">
<stop stop-color="#6156CD"/>
<stop offset="0.197115" stop-color="#9A53C5"/>
<stop offset="0.394231" stop-color="#CC58BA"/>
<stop offset="0.615385" stop-color="#DC7EA3"/>
<stop offset="0.745192" stop-color="#E89A90"/>
<stop offset="0.870192" stop-color="#EDA48A"/>
<stop offset="1" stop-color="#F2AE84"/>
</linearGradient>
<linearGradient id="paint8_linear_53_219" x1="3577.7" y1="3252.68" x2="3749.87" y2="1054.83" gradientUnits="userSpaceOnUse">
<stop stop-color="#6156CD"/>
<stop offset="0.197115" stop-color="#9A53C5"/>
<stop offset="0.394231" stop-color="#CC58BA"/>
<stop offset="0.615385" stop-color="#DC7EA3"/>
<stop offset="0.745192" stop-color="#E89A90"/>
<stop offset="0.870192" stop-color="#EDA48A"/>
<stop offset="1" stop-color="#F2AE84"/>
</linearGradient>
<linearGradient id="paint9_linear_53_219" x1="3577.7" y1="3252.68" x2="3749.87" y2="1054.83" gradientUnits="userSpaceOnUse">
<stop stop-color="#6156CD"/>
<stop offset="0.197115" stop-color="#9A53C5"/>
<stop offset="0.394231" stop-color="#CC58BA"/>
<stop offset="0.615385" stop-color="#DC7EA3"/>
<stop offset="0.745192" stop-color="#E89A90"/>
<stop offset="0.870192" stop-color="#EDA48A"/>
<stop offset="1" stop-color="#F2AE84"/>
</linearGradient>
<linearGradient id="paint10_linear_53_219" x1="3577.7" y1="3252.68" x2="3749.87" y2="1054.83" gradientUnits="userSpaceOnUse">
<stop stop-color="#6156CD"/>
<stop offset="0.197115" stop-color="#9A53C5"/>
<stop offset="0.394231" stop-color="#CC58BA"/>
<stop offset="0.615385" stop-color="#DC7EA3"/>
<stop offset="0.745192" stop-color="#E89A90"/>
<stop offset="0.870192" stop-color="#EDA48A"/>
<stop offset="1" stop-color="#F2AE84"/>
</linearGradient>
<linearGradient id="paint11_linear_53_219" x1="3577.7" y1="3252.68" x2="3749.87" y2="1054.83" gradientUnits="userSpaceOnUse">
<stop stop-color="#6156CD"/>
<stop offset="0.197115" stop-color="#9A53C5"/>
<stop offset="0.394231" stop-color="#CC58BA"/>
<stop offset="0.615385" stop-color="#DC7EA3"/>
<stop offset="0.745192" stop-color="#E89A90"/>
<stop offset="0.870192" stop-color="#EDA48A"/>
<stop offset="1" stop-color="#F2AE84"/>
</linearGradient>
<linearGradient id="paint12_linear_53_219" x1="3577.7" y1="3252.68" x2="3749.87" y2="1054.83" gradientUnits="userSpaceOnUse">
<stop stop-color="#6156CD"/>
<stop offset="0.197115" stop-color="#9A53C5"/>
<stop offset="0.394231" stop-color="#CC58BA"/>
<stop offset="0.615385" stop-color="#DC7EA3"/>
<stop offset="0.745192" stop-color="#E89A90"/>
<stop offset="0.870192" stop-color="#EDA48A"/>
<stop offset="1" stop-color="#F2AE84"/>
</linearGradient>
<linearGradient id="paint13_linear_53_219" x1="3577.7" y1="3252.68" x2="3749.87" y2="1054.83" gradientUnits="userSpaceOnUse">
<stop stop-color="#6156CD"/>
<stop offset="0.197115" stop-color="#9A53C5"/>
<stop offset="0.394231" stop-color="#CC58BA"/>
<stop offset="0.615385" stop-color="#DC7EA3"/>
<stop offset="0.745192" stop-color="#E89A90"/>
<stop offset="0.870192" stop-color="#EDA48A"/>
<stop offset="1" stop-color="#F2AE84"/>
</linearGradient>
<linearGradient id="paint14_linear_53_219" x1="3577.7" y1="3252.68" x2="3749.87" y2="1054.83" gradientUnits="userSpaceOnUse">
<stop stop-color="#6156CD"/>
<stop offset="0.197115" stop-color="#9A53C5"/>
<stop offset="0.394231" stop-color="#CC58BA"/>
<stop offset="0.615385" stop-color="#DC7EA3"/>
<stop offset="0.745192" stop-color="#E89A90"/>
<stop offset="0.870192" stop-color="#EDA48A"/>
<stop offset="1" stop-color="#F2AE84"/>
</linearGradient>
<linearGradient id="paint15_linear_53_219" x1="3577.7" y1="3252.68" x2="3749.87" y2="1054.83" gradientUnits="userSpaceOnUse">
<stop stop-color="#6156CD"/>
<stop offset="0.197115" stop-color="#9A53C5"/>
<stop offset="0.394231" stop-color="#CC58BA"/>
<stop offset="0.615385" stop-color="#DC7EA3"/>
<stop offset="0.745192" stop-color="#E89A90"/>
<stop offset="0.870192" stop-color="#EDA48A"/>
<stop offset="1" stop-color="#F2AE84"/>
</linearGradient>
<linearGradient id="paint16_linear_53_219" x1="3577.7" y1="3252.68" x2="3749.87" y2="1054.83" gradientUnits="userSpaceOnUse">
<stop stop-color="#6156CD"/>
<stop offset="0.197115" stop-color="#9A53C5"/>
<stop offset="0.394231" stop-color="#CC58BA"/>
<stop offset="0.615385" stop-color="#DC7EA3"/>
<stop offset="0.745192" stop-color="#E89A90"/>
<stop offset="0.870192" stop-color="#EDA48A"/>
<stop offset="1" stop-color="#F2AE84"/>
</linearGradient>
<linearGradient id="paint17_linear_53_219" x1="3577.7" y1="3252.68" x2="3749.87" y2="1054.83" gradientUnits="userSpaceOnUse">
<stop stop-color="#6156CD"/>
<stop offset="0.197115" stop-color="#9A53C5"/>
<stop offset="0.394231" stop-color="#CC58BA"/>
<stop offset="0.615385" stop-color="#DC7EA3"/>
<stop offset="0.745192" stop-color="#E89A90"/>
<stop offset="0.870192" stop-color="#EDA48A"/>
<stop offset="1" stop-color="#F2AE84"/>
</linearGradient>
<linearGradient id="paint18_linear_53_219" x1="3577.7" y1="3252.68" x2="3749.87" y2="1054.83" gradientUnits="userSpaceOnUse">
<stop stop-color="#6156CD"/>
<stop offset="0.197115" stop-color="#9A53C5"/>
<stop offset="0.394231" stop-color="#CC58BA"/>
<stop offset="0.615385" stop-color="#DC7EA3"/>
<stop offset="0.745192" stop-color="#E89A90"/>
<stop offset="0.870192" stop-color="#EDA48A"/>
<stop offset="1" stop-color="#F2AE84"/>
</linearGradient>
<linearGradient id="paint19_linear_53_219" x1="3577.7" y1="3252.68" x2="3749.87" y2="1054.83" gradientUnits="userSpaceOnUse">
<stop stop-color="#6156CD"/>
<stop offset="0.197115" stop-color="#9A53C5"/>
<stop offset="0.394231" stop-color="#CC58BA"/>
<stop offset="0.615385" stop-color="#DC7EA3"/>
<stop offset="0.745192" stop-color="#E89A90"/>
<stop offset="0.870192" stop-color="#EDA48A"/>
<stop offset="1" stop-color="#F2AE84"/>
</linearGradient>
<linearGradient id="paint20_linear_53_219" x1="3577.7" y1="3252.68" x2="3749.87" y2="1054.83" gradientUnits="userSpaceOnUse">
<stop stop-color="#6156CD"/>
<stop offset="0.197115" stop-color="#9A53C5"/>
<stop offset="0.394231" stop-color="#CC58BA"/>
<stop offset="0.615385" stop-color="#DC7EA3"/>
<stop offset="0.745192" stop-color="#E89A90"/>
<stop offset="0.870192" stop-color="#EDA48A"/>
<stop offset="1" stop-color="#F2AE84"/>
</linearGradient>
<linearGradient id="paint21_linear_53_219" x1="3577.7" y1="3252.68" x2="3749.87" y2="1054.83" gradientUnits="userSpaceOnUse">
<stop stop-color="#6156CD"/>
<stop offset="0.197115" stop-color="#9A53C5"/>
<stop offset="0.394231" stop-color="#CC58BA"/>
<stop offset="0.615385" stop-color="#DC7EA3"/>
<stop offset="0.745192" stop-color="#E89A90"/>
<stop offset="0.870192" stop-color="#EDA48A"/>
<stop offset="1" stop-color="#F2AE84"/>
</linearGradient>
<linearGradient id="paint22_linear_53_219" x1="3577.7" y1="3252.68" x2="3749.87" y2="1054.83" gradientUnits="userSpaceOnUse">
<stop stop-color="#6156CD"/>
<stop offset="0.197115" stop-color="#9A53C5"/>
<stop offset="0.394231" stop-color="#CC58BA"/>
<stop offset="0.615385" stop-color="#DC7EA3"/>
<stop offset="0.745192" stop-color="#E89A90"/>
<stop offset="0.870192" stop-color="#EDA48A"/>
<stop offset="1" stop-color="#F2AE84"/>
</linearGradient>
<linearGradient id="paint23_linear_53_219" x1="3577.7" y1="3252.68" x2="3749.87" y2="1054.83" gradientUnits="userSpaceOnUse">
<stop stop-color="#6156CD"/>
<stop offset="0.197115" stop-color="#9A53C5"/>
<stop offset="0.394231" stop-color="#CC58BA"/>
<stop offset="0.615385" stop-color="#DC7EA3"/>
<stop offset="0.745192" stop-color="#E89A90"/>
<stop offset="0.870192" stop-color="#EDA48A"/>
<stop offset="1" stop-color="#F2AE84"/>
</linearGradient>
<linearGradient id="paint24_linear_53_219" x1="3577.7" y1="3252.68" x2="3749.87" y2="1054.83" gradientUnits="userSpaceOnUse">
<stop stop-color="#6156CD"/>
<stop offset="0.197115" stop-color="#9A53C5"/>
<stop offset="0.394231" stop-color="#CC58BA"/>
<stop offset="0.615385" stop-color="#DC7EA3"/>
<stop offset="0.745192" stop-color="#E89A90"/>
<stop offset="0.870192" stop-color="#EDA48A"/>
<stop offset="1" stop-color="#F2AE84"/>
</linearGradient>
<linearGradient id="paint25_linear_53_219" x1="3577.7" y1="3252.68" x2="3749.87" y2="1054.83" gradientUnits="userSpaceOnUse">
<stop stop-color="#6156CD"/>
<stop offset="0.197115" stop-color="#9A53C5"/>
<stop offset="0.394231" stop-color="#CC58BA"/>
<stop offset="0.615385" stop-color="#DC7EA3"/>
<stop offset="0.745192" stop-color="#E89A90"/>
<stop offset="0.870192" stop-color="#EDA48A"/>
<stop offset="1" stop-color="#F2AE84"/>
</linearGradient>
<linearGradient id="paint26_linear_53_219" x1="3577.7" y1="3252.68" x2="3749.87" y2="1054.83" gradientUnits="userSpaceOnUse">
<stop stop-color="#6156CD"/>
<stop offset="0.197115" stop-color="#9A53C5"/>
<stop offset="0.394231" stop-color="#CC58BA"/>
<stop offset="0.615385" stop-color="#DC7EA3"/>
<stop offset="0.745192" stop-color="#E89A90"/>
<stop offset="0.870192" stop-color="#EDA48A"/>
<stop offset="1" stop-color="#F2AE84"/>
</linearGradient>
<linearGradient id="paint27_linear_53_219" x1="3577.7" y1="3252.68" x2="3749.87" y2="1054.83" gradientUnits="userSpaceOnUse">
<stop stop-color="#6156CD"/>
<stop offset="0.197115" stop-color="#9A53C5"/>
<stop offset="0.394231" stop-color="#CC58BA"/>
<stop offset="0.615385" stop-color="#DC7EA3"/>
<stop offset="0.745192" stop-color="#E89A90"/>
<stop offset="0.870192" stop-color="#EDA48A"/>
<stop offset="1" stop-color="#F2AE84"/>
</linearGradient>
<linearGradient id="paint28_linear_53_219" x1="3577.7" y1="3252.68" x2="3749.87" y2="1054.83" gradientUnits="userSpaceOnUse">
<stop stop-color="#6156CD"/>
<stop offset="0.197115" stop-color="#9A53C5"/>
<stop offset="0.394231" stop-color="#CC58BA"/>
<stop offset="0.615385" stop-color="#DC7EA3"/>
<stop offset="0.745192" stop-color="#E89A90"/>
<stop offset="0.870192" stop-color="#EDA48A"/>
<stop offset="1" stop-color="#F2AE84"/>
</linearGradient>
<linearGradient id="paint29_linear_53_219" x1="3577.7" y1="3252.68" x2="3749.87" y2="1054.83" gradientUnits="userSpaceOnUse">
<stop stop-color="#6156CD"/>
<stop offset="0.197115" stop-color="#9A53C5"/>
<stop offset="0.394231" stop-color="#CC58BA"/>
<stop offset="0.615385" stop-color="#DC7EA3"/>
<stop offset="0.745192" stop-color="#E89A90"/>
<stop offset="0.870192" stop-color="#EDA48A"/>
<stop offset="1" stop-color="#F2AE84"/>
</linearGradient>
<linearGradient id="paint30_linear_53_219" x1="2318.03" y1="3243.26" x2="2094.56" y2="1050.02" gradientUnits="userSpaceOnUse">
<stop stop-color="#6156CD"/>
<stop offset="0.197115" stop-color="#9A53C5"/>
<stop offset="0.394231" stop-color="#CC58BA"/>
<stop offset="0.615385" stop-color="#DC7EA3"/>
<stop offset="0.745192" stop-color="#E89A90"/>
<stop offset="0.870192" stop-color="#EDA48A"/>
<stop offset="1" stop-color="#F2AE84"/>
</linearGradient>
<linearGradient id="paint31_linear_53_219" x1="2318.03" y1="3243.26" x2="2094.56" y2="1050.02" gradientUnits="userSpaceOnUse">
<stop stop-color="#6156CD"/>
<stop offset="0.197115" stop-color="#9A53C5"/>
<stop offset="0.394231" stop-color="#CC58BA"/>
<stop offset="0.615385" stop-color="#DC7EA3"/>
<stop offset="0.745192" stop-color="#E89A90"/>
<stop offset="0.870192" stop-color="#EDA48A"/>
<stop offset="1" stop-color="#F2AE84"/>
</linearGradient>
<linearGradient id="paint32_linear_53_219" x1="2318.03" y1="3243.26" x2="2094.56" y2="1050.02" gradientUnits="userSpaceOnUse">
<stop stop-color="#6156CD"/>
<stop offset="0.197115" stop-color="#9A53C5"/>
<stop offset="0.394231" stop-color="#CC58BA"/>
<stop offset="0.615385" stop-color="#DC7EA3"/>
<stop offset="0.745192" stop-color="#E89A90"/>
<stop offset="0.870192" stop-color="#EDA48A"/>
<stop offset="1" stop-color="#F2AE84"/>
</linearGradient>
<linearGradient id="paint33_linear_53_219" x1="2318.03" y1="3243.26" x2="2094.56" y2="1050.02" gradientUnits="userSpaceOnUse">
<stop stop-color="#6156CD"/>
<stop offset="0.197115" stop-color="#9A53C5"/>
<stop offset="0.394231" stop-color="#CC58BA"/>
<stop offset="0.615385" stop-color="#DC7EA3"/>
<stop offset="0.745192" stop-color="#E89A90"/>
<stop offset="0.870192" stop-color="#EDA48A"/>
<stop offset="1" stop-color="#F2AE84"/>
</linearGradient>
<linearGradient id="paint34_linear_53_219" x1="2318.03" y1="3243.26" x2="2094.56" y2="1050.02" gradientUnits="userSpaceOnUse">
<stop stop-color="#6156CD"/>
<stop offset="0.197115" stop-color="#9A53C5"/>
<stop offset="0.394231" stop-color="#CC58BA"/>
<stop offset="0.615385" stop-color="#DC7EA3"/>
<stop offset="0.745192" stop-color="#E89A90"/>
<stop offset="0.870192" stop-color="#EDA48A"/>
<stop offset="1" stop-color="#F2AE84"/>
</linearGradient>
<linearGradient id="paint35_linear_53_219" x1="2318.03" y1="3243.26" x2="2094.56" y2="1050.02" gradientUnits="userSpaceOnUse">
<stop stop-color="#6156CD"/>
<stop offset="0.197115" stop-color="#9A53C5"/>
<stop offset="0.394231" stop-color="#CC58BA"/>
<stop offset="0.615385" stop-color="#DC7EA3"/>
<stop offset="0.745192" stop-color="#E89A90"/>
<stop offset="0.870192" stop-color="#EDA48A"/>
<stop offset="1" stop-color="#F2AE84"/>
</linearGradient>
<linearGradient id="paint36_linear_53_219" x1="2318.03" y1="3243.26" x2="2094.56" y2="1050.02" gradientUnits="userSpaceOnUse">
<stop stop-color="#6156CD"/>
<stop offset="0.197115" stop-color="#9A53C5"/>
<stop offset="0.394231" stop-color="#CC58BA"/>
<stop offset="0.615385" stop-color="#DC7EA3"/>
<stop offset="0.745192" stop-color="#E89A90"/>
<stop offset="0.870192" stop-color="#EDA48A"/>
<stop offset="1" stop-color="#F2AE84"/>
</linearGradient>
<linearGradient id="paint37_linear_53_219" x1="2318.03" y1="3243.26" x2="2094.56" y2="1050.02" gradientUnits="userSpaceOnUse">
<stop stop-color="#6156CD"/>
<stop offset="0.197115" stop-color="#9A53C5"/>
<stop offset="0.394231" stop-color="#CC58BA"/>
<stop offset="0.615385" stop-color="#DC7EA3"/>
<stop offset="0.745192" stop-color="#E89A90"/>
<stop offset="0.870192" stop-color="#EDA48A"/>
<stop offset="1" stop-color="#F2AE84"/>
</linearGradient>
<linearGradient id="paint38_linear_53_219" x1="2318.03" y1="3243.26" x2="2094.56" y2="1050.02" gradientUnits="userSpaceOnUse">
<stop stop-color="#6156CD"/>
<stop offset="0.197115" stop-color="#9A53C5"/>
<stop offset="0.394231" stop-color="#CC58BA"/>
<stop offset="0.615385" stop-color="#DC7EA3"/>
<stop offset="0.745192" stop-color="#E89A90"/>
<stop offset="0.870192" stop-color="#EDA48A"/>
<stop offset="1" stop-color="#F2AE84"/>
</linearGradient>
<linearGradient id="paint39_linear_53_219" x1="2318.03" y1="3243.26" x2="2094.56" y2="1050.02" gradientUnits="userSpaceOnUse">
<stop stop-color="#6156CD"/>
<stop offset="0.197115" stop-color="#9A53C5"/>
<stop offset="0.394231" stop-color="#CC58BA"/>
<stop offset="0.615385" stop-color="#DC7EA3"/>
<stop offset="0.745192" stop-color="#E89A90"/>
<stop offset="0.870192" stop-color="#EDA48A"/>
<stop offset="1" stop-color="#F2AE84"/>
</linearGradient>
<linearGradient id="paint40_linear_53_219" x1="2318.03" y1="3243.26" x2="2094.56" y2="1050.02" gradientUnits="userSpaceOnUse">
<stop stop-color="#6156CD"/>
<stop offset="0.197115" stop-color="#9A53C5"/>
<stop offset="0.394231" stop-color="#CC58BA"/>
<stop offset="0.615385" stop-color="#DC7EA3"/>
<stop offset="0.745192" stop-color="#E89A90"/>
<stop offset="0.870192" stop-color="#EDA48A"/>
<stop offset="1" stop-color="#F2AE84"/>
</linearGradient>
<linearGradient id="paint41_linear_53_219" x1="2318.03" y1="3243.26" x2="2094.56" y2="1050.02" gradientUnits="userSpaceOnUse">
<stop stop-color="#6156CD"/>
<stop offset="0.197115" stop-color="#9A53C5"/>
<stop offset="0.394231" stop-color="#CC58BA"/>
<stop offset="0.615385" stop-color="#DC7EA3"/>
<stop offset="0.745192" stop-color="#E89A90"/>
<stop offset="0.870192" stop-color="#EDA48A"/>
<stop offset="1" stop-color="#F2AE84"/>
</linearGradient>
<linearGradient id="paint42_linear_53_219" x1="2318.03" y1="3243.26" x2="2094.56" y2="1050.02" gradientUnits="userSpaceOnUse">
<stop stop-color="#6156CD"/>
<stop offset="0.197115" stop-color="#9A53C5"/>
<stop offset="0.394231" stop-color="#CC58BA"/>
<stop offset="0.615385" stop-color="#DC7EA3"/>
<stop offset="0.745192" stop-color="#E89A90"/>
<stop offset="0.870192" stop-color="#EDA48A"/>
<stop offset="1" stop-color="#F2AE84"/>
</linearGradient>
<linearGradient id="paint43_linear_53_219" x1="2318.03" y1="3243.26" x2="2094.56" y2="1050.02" gradientUnits="userSpaceOnUse">
<stop stop-color="#6156CD"/>
<stop offset="0.197115" stop-color="#9A53C5"/>
<stop offset="0.394231" stop-color="#CC58BA"/>
<stop offset="0.615385" stop-color="#DC7EA3"/>
<stop offset="0.745192" stop-color="#E89A90"/>
<stop offset="0.870192" stop-color="#EDA48A"/>
<stop offset="1" stop-color="#F2AE84"/>
</linearGradient>
<linearGradient id="paint44_linear_53_219" x1="2318.03" y1="3243.26" x2="2094.56" y2="1050.02" gradientUnits="userSpaceOnUse">
<stop stop-color="#6156CD"/>
<stop offset="0.197115" stop-color="#9A53C5"/>
<stop offset="0.394231" stop-color="#CC58BA"/>
<stop offset="0.615385" stop-color="#DC7EA3"/>
<stop offset="0.745192" stop-color="#E89A90"/>
<stop offset="0.870192" stop-color="#EDA48A"/>
<stop offset="1" stop-color="#F2AE84"/>
</linearGradient>
<linearGradient id="paint45_linear_53_219" x1="2318.03" y1="3243.26" x2="2094.56" y2="1050.02" gradientUnits="userSpaceOnUse">
<stop stop-color="#6156CD"/>
<stop offset="0.197115" stop-color="#9A53C5"/>
<stop offset="0.394231" stop-color="#CC58BA"/>
<stop offset="0.615385" stop-color="#DC7EA3"/>
<stop offset="0.745192" stop-color="#E89A90"/>
<stop offset="0.870192" stop-color="#EDA48A"/>
<stop offset="1" stop-color="#F2AE84"/>
</linearGradient>
<linearGradient id="paint46_linear_53_219" x1="2318.03" y1="3243.26" x2="2094.56" y2="1050.02" gradientUnits="userSpaceOnUse">
<stop stop-color="#6156CD"/>
<stop offset="0.197115" stop-color="#9A53C5"/>
<stop offset="0.394231" stop-color="#CC58BA"/>
<stop offset="0.615385" stop-color="#DC7EA3"/>
<stop offset="0.745192" stop-color="#E89A90"/>
<stop offset="0.870192" stop-color="#EDA48A"/>
<stop offset="1" stop-color="#F2AE84"/>
</linearGradient>
<linearGradient id="paint47_linear_53_219" x1="2318.03" y1="3243.26" x2="2094.56" y2="1050.02" gradientUnits="userSpaceOnUse">
<stop stop-color="#6156CD"/>
<stop offset="0.197115" stop-color="#9A53C5"/>
<stop offset="0.394231" stop-color="#CC58BA"/>
<stop offset="0.615385" stop-color="#DC7EA3"/>
<stop offset="0.745192" stop-color="#E89A90"/>
<stop offset="0.870192" stop-color="#EDA48A"/>
<stop offset="1" stop-color="#F2AE84"/>
</linearGradient>
<linearGradient id="paint48_linear_53_219" x1="2318.03" y1="3243.26" x2="2094.56" y2="1050.02" gradientUnits="userSpaceOnUse">
<stop stop-color="#6156CD"/>
<stop offset="0.197115" stop-color="#9A53C5"/>
<stop offset="0.394231" stop-color="#CC58BA"/>
<stop offset="0.615385" stop-color="#DC7EA3"/>
<stop offset="0.745192" stop-color="#E89A90"/>
<stop offset="0.870192" stop-color="#EDA48A"/>
<stop offset="1" stop-color="#F2AE84"/>
</linearGradient>
<linearGradient id="paint49_linear_53_219" x1="2318.03" y1="3243.26" x2="2094.56" y2="1050.02" gradientUnits="userSpaceOnUse">
<stop stop-color="#6156CD"/>
<stop offset="0.197115" stop-color="#9A53C5"/>
<stop offset="0.394231" stop-color="#CC58BA"/>
<stop offset="0.615385" stop-color="#DC7EA3"/>
<stop offset="0.745192" stop-color="#E89A90"/>
<stop offset="0.870192" stop-color="#EDA48A"/>
<stop offset="1" stop-color="#F2AE84"/>
</linearGradient>
<linearGradient id="paint50_linear_53_219" x1="2318.03" y1="3243.26" x2="2094.56" y2="1050.02" gradientUnits="userSpaceOnUse">
<stop stop-color="#6156CD"/>
<stop offset="0.197115" stop-color="#9A53C5"/>
<stop offset="0.394231" stop-color="#CC58BA"/>
<stop offset="0.615385" stop-color="#DC7EA3"/>
<stop offset="0.745192" stop-color="#E89A90"/>
<stop offset="0.870192" stop-color="#EDA48A"/>
<stop offset="1" stop-color="#F2AE84"/>
</linearGradient>
<linearGradient id="paint51_linear_53_219" x1="2318.03" y1="3243.26" x2="2094.56" y2="1050.02" gradientUnits="userSpaceOnUse">
<stop stop-color="#6156CD"/>
<stop offset="0.197115" stop-color="#9A53C5"/>
<stop offset="0.394231" stop-color="#CC58BA"/>
<stop offset="0.615385" stop-color="#DC7EA3"/>
<stop offset="0.745192" stop-color="#E89A90"/>
<stop offset="0.870192" stop-color="#EDA48A"/>
<stop offset="1" stop-color="#F2AE84"/>
</linearGradient>
<linearGradient id="paint52_linear_53_219" x1="2318.03" y1="3243.26" x2="2094.56" y2="1050.02" gradientUnits="userSpaceOnUse">
<stop stop-color="#6156CD"/>
<stop offset="0.197115" stop-color="#9A53C5"/>
<stop offset="0.394231" stop-color="#CC58BA"/>
<stop offset="0.615385" stop-color="#DC7EA3"/>
<stop offset="0.745192" stop-color="#E89A90"/>
<stop offset="0.870192" stop-color="#EDA48A"/>
<stop offset="1" stop-color="#F2AE84"/>
</linearGradient>
<linearGradient id="paint53_linear_53_219" x1="2318.03" y1="3243.26" x2="2094.56" y2="1050.02" gradientUnits="userSpaceOnUse">
<stop stop-color="#6156CD"/>
<stop offset="0.197115" stop-color="#9A53C5"/>
<stop offset="0.394231" stop-color="#CC58BA"/>
<stop offset="0.615385" stop-color="#DC7EA3"/>
<stop offset="0.745192" stop-color="#E89A90"/>
<stop offset="0.870192" stop-color="#EDA48A"/>
<stop offset="1" stop-color="#F2AE84"/>
</linearGradient>
<linearGradient id="paint54_linear_53_219" x1="2318.03" y1="3243.26" x2="2094.56" y2="1050.02" gradientUnits="userSpaceOnUse">
<stop stop-color="#6156CD"/>
<stop offset="0.197115" stop-color="#9A53C5"/>
<stop offset="0.394231" stop-color="#CC58BA"/>
<stop offset="0.615385" stop-color="#DC7EA3"/>
<stop offset="0.745192" stop-color="#E89A90"/>
<stop offset="0.870192" stop-color="#EDA48A"/>
<stop offset="1" stop-color="#F2AE84"/>
</linearGradient>
<linearGradient id="paint55_linear_53_219" x1="2318.03" y1="3243.26" x2="2094.56" y2="1050.02" gradientUnits="userSpaceOnUse">
<stop stop-color="#6156CD"/>
<stop offset="0.197115" stop-color="#9A53C5"/>
<stop offset="0.394231" stop-color="#CC58BA"/>
<stop offset="0.615385" stop-color="#DC7EA3"/>
<stop offset="0.745192" stop-color="#E89A90"/>
<stop offset="0.870192" stop-color="#EDA48A"/>
<stop offset="1" stop-color="#F2AE84"/>
</linearGradient>
<linearGradient id="paint56_linear_53_219" x1="2318.03" y1="3243.26" x2="2094.56" y2="1050.02" gradientUnits="userSpaceOnUse">
<stop stop-color="#6156CD"/>
<stop offset="0.197115" stop-color="#9A53C5"/>
<stop offset="0.394231" stop-color="#CC58BA"/>
<stop offset="0.615385" stop-color="#DC7EA3"/>
<stop offset="0.745192" stop-color="#E89A90"/>
<stop offset="0.870192" stop-color="#EDA48A"/>
<stop offset="1" stop-color="#F2AE84"/>
</linearGradient>
<linearGradient id="paint57_linear_53_219" x1="2318.03" y1="3243.26" x2="2094.56" y2="1050.02" gradientUnits="userSpaceOnUse">
<stop stop-color="#6156CD"/>
<stop offset="0.197115" stop-color="#9A53C5"/>
<stop offset="0.394231" stop-color="#CC58BA"/>
<stop offset="0.615385" stop-color="#DC7EA3"/>
<stop offset="0.745192" stop-color="#E89A90"/>
<stop offset="0.870192" stop-color="#EDA48A"/>
<stop offset="1" stop-color="#F2AE84"/>
</linearGradient>
<linearGradient id="paint58_linear_53_219" x1="2318.03" y1="3243.26" x2="2094.56" y2="1050.02" gradientUnits="userSpaceOnUse">
<stop stop-color="#6156CD"/>
<stop offset="0.197115" stop-color="#9A53C5"/>
<stop offset="0.394231" stop-color="#CC58BA"/>
<stop offset="0.615385" stop-color="#DC7EA3"/>
<stop offset="0.745192" stop-color="#E89A90"/>
<stop offset="0.870192" stop-color="#EDA48A"/>
<stop offset="1" stop-color="#F2AE84"/>
</linearGradient>
<linearGradient id="paint59_linear_53_219" x1="2318.03" y1="3243.26" x2="2094.56" y2="1050.02" gradientUnits="userSpaceOnUse">
<stop stop-color="#6156CD"/>
<stop offset="0.197115" stop-color="#9A53C5"/>
<stop offset="0.394231" stop-color="#CC58BA"/>
<stop offset="0.615385" stop-color="#DC7EA3"/>
<stop offset="0.745192" stop-color="#E89A90"/>
<stop offset="0.870192" stop-color="#EDA48A"/>
<stop offset="1" stop-color="#F2AE84"/>
</linearGradient>
</defs>
</svg>
